<?xml version="1.0" encoding="UTF-8"?><svg id="a" xmlns="http://www.w3.org/2000/svg" viewBox="0 0 595.28 285.06"><defs><style>.b{stroke:#000;stroke-linecap:round;stroke-linejoin:round;stroke-width:2px;}.b,.c{fill-rule:evenodd;}.d{fill:#333;font-family:Avenir-Medium, Avenir;font-size:12px;}.c{fill:#fff;}</style></defs><g><path d="M564.25,149.76c0,16.21,.02,32.43,0,48.64-.01,6.65-2.33,7.95-8.14,4.64-11.61-6.61-23.17-13.32-34.85-19.81-4.2-2.33-6.09-5.42-6.01-10.32,.22-14.26-.02-28.53,.13-42.8,.05-5.1-1.76-8.63-6.37-11-4.61-2.37-9.06-5.07-13.51-7.72-3.33-1.99-6.57-2.1-9.93-.14-5.05,2.94-10.11,5.84-15.18,8.74-2.95,1.69-4.32,4.02-4.31,7.6,.07,23.48-.03,46.95-.09,70.43-.02,7.18-2.22,8.43-8.51,4.84-11.49-6.56-22.93-13.21-34.5-19.64-4.21-2.34-6.08-5.43-6-10.32,.22-14.26-.02-28.53,.13-42.8,.05-5.1-1.78-8.63-6.38-10.99-4.5-2.3-8.86-4.89-13.17-7.54-3.74-2.3-7.24-2.21-10.95,.06-4.31,2.64-8.68,5.22-13.17,7.55-4.42,2.3-6.31,5.66-6.25,10.65,.16,14.53-.04,29.05,.12,43.58,.05,4.41-1.63,7.31-5.43,9.45-12.1,6.8-24.11,13.77-36.17,20.63-4.78,2.72-7.4,1.21-7.41-4.34-.06-32.94-.06-65.89-.14-98.83,0-4.03,1.58-6.88,5.11-8.89,21.29-12.16,42.56-24.36,63.8-36.6,3.51-2.02,6.76-1.97,10.26,.06,13.7,7.93,27.48,15.71,41.16,23.68,2.08,1.21,3.54,1.2,5.61,0,13.33-7.79,26.8-15.33,40.1-23.16,4.28-2.52,8.04-2.56,12.36-.05,20.64,12,41.35,23.87,62.1,35.65,4.09,2.32,5.82,5.48,5.79,10.11-.11,16.21-.04,32.43-.04,48.64h-.14Z"/><path d="M31.56,149.46c0-15.95,.11-31.9-.07-47.85-.06-4.97,1.7-8.24,6.07-10.72,20.88-11.83,41.68-23.8,62.44-35.83,3.78-2.19,7.12-2.27,10.92-.07,20.87,12.1,41.79,24.13,62.77,36.04,4.08,2.32,5.88,5.42,5.86,10.06-.12,32.42-.12,64.84-.19,97.26-.01,6.59-2.44,8-8.11,4.76-11.71-6.69-23.38-13.47-35.16-20.04-3.95-2.2-5.76-5.1-5.71-9.68,.16-14.39-.04-28.79,.11-43.18,.05-5.07-1.66-8.65-6.3-11.03-4.73-2.42-9.27-5.21-13.86-7.9-3.21-1.89-6.34-1.92-9.56-.03-4.92,2.89-9.84,5.78-14.85,8.52-3.88,2.12-5.34,5.31-5.32,9.59,.07,14.52-.1,29.05,.1,43.57,.07,4.88-1.76,7.96-6,10.31-11.69,6.48-23.22,13.21-34.82,19.84-5.71,3.26-8.21,1.88-8.22-4.6-.02-16.34,0-32.68,0-49.02h-.09Z"/><polygon class="b" points="214.66 114.9 212.95 111.79 207.77 102.89 202.03 102.96 203.6 105.66 189 105.74 185.8 100.23 175.05 100.31 232.99 191.39 254.72 152.58 237.29 122.65 235.52 119.6 231.46 112.63 231.46 112.63 214.66 114.9"/><path d="M268.55,106.19c4.58-7.89,9.16-15.77,13.66-23.7,.98-1.72,2.23-2.43,4.2-2.42,13.38,.05,26.76,.02,40.14,.03,3.81,0,4.75,1.48,3.21,4.98-4.18,7.09-8.45,14.13-12.29,21.42-4.49,7.66-9,15.3-13.45,22.98-9.94,17.16-19.75,34.4-29.83,51.48-4.85,8.22-9.69,16.45-15.26,24.22-1.21,1.68-2.45,3.37-3.86,4.88-3.58,3.82-6.63,3.77-10.23-.05-1.73-1.83-7.16-9.79-4.26-5.13-4.72-7.4-10.39-15.82-15.07-23.23,1.52-3.53,17.99-33.3,22.31-40.75,.34-.58,14.44-23.88,20.72-34.71Z"/><polyline class="c" points="225.52 181.65 248.49 139.8 242.14 129.07"/><g><polygon class="b" points="180.56 76.93 174.16 77.06 178.06 83.5 180.35 83.45 183.99 89.45 194.47 89.23 188.09 78.69 181.71 78.82 180.56 76.93 180.56 76.93"/><polygon class="b" points="179.65 46.04 173.41 46.17 177.21 52.44 183.45 52.31 179.65 46.04 179.65 46.04"/><polygon class="b" points="168.45 54.9 163.19 55.01 166.4 60.29 171.66 60.18 168.45 54.9 168.45 54.9"/><polygon class="b" points="190.9 35.35 186.49 35.44 188.8 39.25 193.21 39.16 190.9 35.35 190.9 35.35"/><polygon class="b" points="180.66 64.09 175.13 64.21 178.03 69 183.56 68.88 180.66 64.09 180.66 64.09"/><polygon class="b" points="207.83 67.15 198.87 67.34 197.44 64.97 189.31 65.14 193.56 72.15 199.11 72.04 203.32 78.99 214.86 78.75 207.83 67.15 207.83 67.15"/><polygon class="b" points="198.38 51.56 190.54 51.73 194.64 58.51 202.48 58.34 198.38 51.56 198.38 51.56"/><polygon class="b" points="163.86 37.23 160.25 37.31 162.14 40.43 165.75 40.35 163.86 37.23 163.86 37.23"/><polygon class="b" points="223.31 91.21 208.99 91.52 211.83 96.2 216.22 96.11 218.85 100.45 228.78 100.24 223.31 91.21 223.31 91.21"/></g><polygon class="b" points="167.2 66.74 162.78 66.83 165.09 70.64 169.51 70.55 167.2 66.74 167.2 66.74"/></g><text class="d" transform="translate(212.2 253.94)"><tspan x="0" y="0" xml:space="preserve">N  V  M  .  S  H</tspan></text></svg>