<?xml version="1.0" encoding="UTF-8"?><svg id="a" xmlns="http://www.w3.org/2000/svg" viewBox="0 0 595.28 285.06"><defs><style>.b{stroke:#fff;stroke-linecap:round;stroke-linejoin:round;stroke-width:2px;}.b,.c,.d{fill:#fff;}.b,.e{fill-rule:evenodd;}.d{font-family:Avenir-Medium, Avenir;font-size:12px;}</style></defs><g><path class="c" d="M565.7,140.31c0,16.21,.02,32.43,0,48.64-.01,6.65-2.33,7.95-8.14,4.64-11.61-6.61-23.17-13.32-34.85-19.81-4.2-2.33-6.09-5.42-6.01-10.32,.22-14.26-.02-28.53,.13-42.8,.05-5.1-1.76-8.63-6.37-11-4.61-2.37-9.06-5.07-13.51-7.72-3.33-1.99-6.57-2.1-9.93-.14-5.05,2.94-10.11,5.84-15.18,8.74-2.95,1.69-4.32,4.02-4.31,7.6,.07,23.48-.03,46.95-.09,70.43-.02,7.18-2.22,8.43-8.51,4.84-11.49-6.56-22.93-13.21-34.5-19.64-4.21-2.34-6.08-5.43-6-10.32,.22-14.26-.02-28.53,.13-42.8,.05-5.1-1.78-8.63-6.38-10.99-4.5-2.3-8.86-4.89-13.17-7.54-3.74-2.3-7.24-2.21-10.95,.06-4.31,2.64-8.68,5.22-13.17,7.55-4.42,2.3-6.31,5.66-6.25,10.65,.16,14.53-.04,29.05,.12,43.58,.05,4.41-1.63,7.31-5.43,9.45-12.1,6.8-24.11,13.77-36.17,20.63-4.78,2.72-7.4,1.21-7.41-4.34-.06-32.94-.06-65.89-.14-98.83,0-4.03,1.58-6.88,5.11-8.89,21.29-12.16,42.56-24.36,63.8-36.6,3.51-2.02,6.76-1.97,10.26,.06,13.7,7.93,27.48,15.71,41.16,23.68,2.08,1.21,3.54,1.2,5.61,0,13.33-7.79,26.8-15.33,40.1-23.16,4.28-2.52,8.04-2.56,12.36-.05,20.64,12,41.35,23.87,62.1,35.65,4.09,2.32,5.82,5.48,5.79,10.11-.11,16.21-.04,32.43-.04,48.64h-.14Z"/><path class="c" d="M33,140.01c0-15.95,.11-31.9-.07-47.85-.06-4.97,1.7-8.24,6.07-10.72,20.88-11.83,41.68-23.8,62.44-35.83,3.78-2.19,7.12-2.27,10.92-.07,20.87,12.1,41.79,24.13,62.77,36.04,4.08,2.32,5.88,5.42,5.86,10.06-.12,32.42-.12,64.84-.19,97.26-.01,6.59-2.44,8-8.11,4.76-11.71-6.69-23.38-13.47-35.16-20.04-3.95-2.2-5.76-5.1-5.71-9.68,.16-14.39-.04-28.79,.11-43.18,.05-5.07-1.66-8.65-6.3-11.03-4.73-2.42-9.27-5.21-13.86-7.9-3.21-1.89-6.34-1.92-9.56-.03-4.92,2.89-9.84,5.78-14.85,8.52-3.88,2.12-5.34,5.31-5.32,9.59,.07,14.52-.1,29.05,.1,43.57,.07,4.88-1.76,7.96-6,10.31-11.69,6.48-23.22,13.21-34.82,19.84-5.71,3.26-8.21,1.88-8.22-4.6-.02-16.34,0-32.68,0-49.02h-.09Z"/><polygon class="b" points="216.11 105.44 214.4 102.33 209.22 93.43 203.48 93.51 205.05 96.21 190.45 96.28 187.25 90.77 176.5 90.86 234.44 181.94 256.17 143.13 238.74 113.19 236.96 110.15 232.91 103.18 232.91 103.18 216.11 105.44"/><path class="c" d="M270,96.73c4.58-7.89,9.16-15.77,13.66-23.7,.98-1.72,2.23-2.43,4.2-2.42,13.38,.05,26.76,.02,40.14,.03,3.81,0,4.75,1.48,3.21,4.98-4.18,7.09-8.45,14.13-12.29,21.42-4.49,7.66-9,15.3-13.45,22.98-9.94,17.16-19.75,34.4-29.83,51.48-4.85,8.22-9.69,16.45-15.26,24.22-1.21,1.68-2.45,3.37-3.86,4.88-3.58,3.82-6.63,3.77-10.23-.05-1.73-1.83-7.16-9.79-4.26-5.13-4.72-7.4-10.39-15.82-15.07-23.23,1.52-3.53,17.99-33.3,22.31-40.75,.34-.58,14.44-23.88,20.72-34.71Z"/><polyline class="e" points="226.97 172.19 249.93 130.35 243.59 119.61"/><g><polygon class="b" points="182.01 67.47 175.61 67.61 179.51 74.04 181.8 74 185.43 79.99 195.92 79.77 189.54 69.23 183.16 69.37 182.01 67.47 182.01 67.47"/><polygon class="b" points="181.1 36.59 174.86 36.72 178.66 42.99 184.9 42.85 181.1 36.59 181.1 36.59"/><polygon class="b" points="169.9 45.44 164.64 45.55 167.85 50.84 173.11 50.73 169.9 45.44 169.9 45.44"/><polygon class="b" points="192.35 25.89 187.94 25.99 190.25 29.8 194.66 29.7 192.35 25.89 192.35 25.89"/><polygon class="b" points="182.11 54.64 176.57 54.76 179.47 59.54 185.01 59.42 182.11 54.64 182.11 54.64"/><polygon class="b" points="209.28 57.7 200.32 57.89 198.88 55.51 190.76 55.69 195 62.7 200.56 62.58 204.77 69.54 216.31 69.29 209.28 57.7 209.28 57.7"/><polygon class="b" points="199.82 42.11 191.99 42.28 196.09 49.05 203.93 48.89 199.82 42.11 199.82 42.11"/><polygon class="b" points="165.31 27.78 161.7 27.86 163.59 30.97 167.2 30.9 165.31 27.78 165.31 27.78"/><polygon class="b" points="224.76 81.76 210.44 82.06 213.28 86.75 217.66 86.65 220.3 91 230.23 90.79 224.76 81.76 224.76 81.76"/></g><polygon class="b" points="168.65 57.28 164.23 57.38 166.54 61.19 170.95 61.1 168.65 57.28 168.65 57.28"/></g><text class="d" transform="translate(209.96 248.94)"><tspan x="0" y="0" xml:space="preserve">N  V  M  .  S  H</tspan></text></svg>