<?xml version="1.0" encoding="UTF-8"?><svg id="a" xmlns="http://www.w3.org/2000/svg" viewBox="0 0 595.28 285.06"><defs><style>.b,.c,.d{fill:#333;}.c{font-family:Avenir-Medium, Avenir;font-size:12px;}.e{fill:#555;}.e,.d{fill-rule:evenodd;}.d{stroke:#333;stroke-linecap:round;stroke-linejoin:round;stroke-width:2px;}</style></defs><text class="c" transform="translate(211.57 249.82)"><tspan x="0" y="0" xml:space="preserve">N  V  M  .  S  H</tspan></text><g><path class="b" d="M563.92,186.8c-.01,6.65-2.33,7.95-8.14,4.64-11.61-6.61-23.17-13.32-34.85-19.81-4.2-2.33-6.09-5.42-6.01-10.32,.22-14.26-.02-28.53,.13-42.8,.05-5.1-1.76-8.63-6.37-11-4.61-2.37-9.06-5.07-13.51-7.72-3.33-1.99-6.57-2.1-9.93-.14-5.05,2.94-10.11,5.84-15.18,8.74-2.95,1.69-4.32,4.02-4.31,7.6,.07,23.48-.03,46.95-.09,70.43-.02,7.18-2.22,8.43-8.51,4.84-11.49-6.56-22.93-13.21-34.5-19.64-4.21-2.34-6.08-5.43-6-10.32,.22-14.26-.02-28.53,.13-42.8,.05-5.1-1.78-8.63-6.38-10.99-4.5-2.3-8.86-4.89-13.17-7.54-3.74-2.3-7.24-2.21-10.95,.06-4.31,2.64-8.68,5.22-13.17,7.55-4.42,2.3-6.31,5.66-6.25,10.65,.16,14.53-.04,29.05,.12,43.58,.05,4.41-1.63,7.31-5.43,9.45-12.1,6.8-24.11,13.77-36.17,20.63-4.78,2.72-7.4,1.21-7.41-4.34-.06-32.94-.06-65.89-.14-98.83,0-4.03,1.58-6.88,5.11-8.89,21.29-12.16,42.56-24.36,63.8-36.6,3.51-2.02,6.76-1.97,10.26,.06,13.7,7.93,27.48,15.71,41.16,23.68,2.08,1.21,3.54,1.2,5.61,0,13.33-7.79,26.8-15.33,40.1-23.16,4.28-2.52,8.04-2.56,12.36-.05,20.64,12,41.35,23.87,62.1,35.65,4.09,2.32,5.82,5.48,5.79,10.11"/><path class="b" d="M31.23,137.86c0-15.95,.11-31.9-.07-47.85-.06-4.97,1.7-8.24,6.07-10.72,20.88-11.83,41.68-23.8,62.44-35.83,3.78-2.19,7.12-2.27,10.92-.07,20.87,12.1,41.79,24.13,62.77,36.04,4.08,2.32,5.88,5.42,5.86,10.06-.12,32.42-.12,64.84-.19,97.26-.01,6.59-2.44,8-8.11,4.76-11.71-6.69-23.38-13.47-35.16-20.04-3.95-2.2-5.76-5.1-5.71-9.68,.16-14.39-.04-28.79,.11-43.18,.05-5.07-1.66-8.65-6.3-11.03-4.73-2.42-9.27-5.21-13.86-7.9-3.21-1.89-6.34-1.92-9.56-.03-4.92,2.89-9.84,5.78-14.85,8.52-3.88,2.12-5.34,5.31-5.32,9.59,.07,14.52-.1,29.05,.1,43.57,.07,4.88-1.76,7.96-6,10.31-11.69,6.48-23.22,13.21-34.82,19.84-5.71,3.26-8.21,1.88-8.22-4.6-.02-16.34,0-32.68,0-49.02h-.09Z"/><polygon class="d" points="214.34 103.29 212.63 100.18 207.44 91.29 201.71 91.36 203.28 94.06 188.68 94.13 185.48 88.63 174.73 88.71 232.67 179.79 254.4 140.98 236.96 111.04 235.19 108 231.13 101.03 231.13 101.03 214.34 103.29"/><path class="b" d="M268.23,94.59c4.58-7.89,9.16-15.77,13.66-23.7,.98-1.72,2.23-2.43,4.2-2.42,13.38,.05,26.76,.02,40.14,.03,3.81,0,4.75,1.48,3.21,4.98-4.18,7.09-8.45,14.13-12.29,21.42-4.49,7.66-9,15.3-13.45,22.98-9.94,17.16-19.75,34.4-29.83,51.48-4.85,8.22-9.69,16.45-15.26,24.22-1.21,1.68-2.45,3.37-3.86,4.88-3.58,3.82-6.63,3.77-10.23-.05-1.73-1.83-7.16-9.79-4.26-5.13-4.72-7.4-10.39-15.82-15.07-23.23,1.52-3.53,17.99-33.3,22.31-40.75,.34-.58,14.44-23.88,20.72-34.71Z"/><polyline class="e" points="225.2 170.04 248.16 128.2 241.82 117.46"/><g><polygon class="d" points="180.24 65.32 173.84 65.46 177.74 71.9 180.03 71.85 183.66 77.85 194.15 77.62 187.76 67.08 181.39 67.22 180.24 65.32 180.24 65.32"/><polygon class="d" points="179.33 34.44 173.09 34.57 176.89 40.84 183.13 40.71 179.33 34.44 179.33 34.44"/><polygon class="d" points="168.13 43.29 162.87 43.4 166.07 48.69 171.33 48.58 168.13 43.29 168.13 43.29"/><polygon class="d" points="190.58 23.75 186.17 23.84 188.48 27.65 192.89 27.56 190.58 23.75 190.58 23.75"/><polygon class="d" points="180.34 52.49 174.8 52.61 177.7 57.39 183.24 57.28 180.34 52.49 180.34 52.49"/><polygon class="d" points="207.51 55.55 198.55 55.74 197.11 53.37 188.99 53.54 193.23 60.55 198.79 60.43 203 67.39 214.54 67.15 207.51 55.55 207.51 55.55"/><polygon class="d" points="198.05 39.96 190.22 40.13 194.32 46.9 202.16 46.74 198.05 39.96 198.05 39.96"/><polygon class="d" points="163.54 25.63 159.93 25.71 161.82 28.83 165.43 28.75 163.54 25.63 163.54 25.63"/><polygon class="d" points="222.99 79.61 208.67 79.91 211.51 84.6 215.89 84.5 218.53 88.85 228.46 88.64 222.99 79.61 222.99 79.61"/></g><polygon class="d" points="166.88 55.14 162.46 55.23 164.77 59.04 169.18 58.95 166.88 55.14 166.88 55.14"/></g></svg>